<?xml version="1.0" encoding="UTF-8" standalone="no"?>
<svg
   viewBox="0 0 200.00001 200.00001"
   version="1.1"
   id="svg62"
   sodipodi:docname="postman.svg"
   width="200"
   height="200"
   inkscape:version="1.1.2 (1:1.1+202202050950+0a00cf5339)"
   xmlns:inkscape="http://www.inkscape.org/namespaces/inkscape"
   xmlns:sodipodi="http://sodipodi.sourceforge.net/DTD/sodipodi-0.dtd"
   xmlns="http://www.w3.org/2000/svg"
   xmlns:svg="http://www.w3.org/2000/svg">
  <defs
     id="defs66" />
  <sodipodi:namedview
     id="namedview64"
     pagecolor="#ffffff"
     bordercolor="#666666"
     borderopacity="1.0"
     inkscape:pageshadow="2"
     inkscape:pageopacity="0.0"
     inkscape:pagecheckerboard="0"
     showgrid="false"
     fit-margin-top="0"
     fit-margin-left="0"
     fit-margin-right="0"
     fit-margin-bottom="0"
     inkscape:zoom="0.71963309"
     inkscape:cx="77.122634"
     inkscape:cy="295.98416"
     inkscape:window-width="1920"
     inkscape:window-height="1016"
     inkscape:window-x="0"
     inkscape:window-y="27"
     inkscape:window-maximized="1"
     inkscape:current-layer="svg62" />
  <g
     id="g993"
     transform="translate(-58.29449,-0.00286696)">
    <path
       d="M 257.48,112.74 A 100,100 0 1 0 145.57,199.19 100,100 0 0 0 257.48,112.74 Z"
       id="path16"
       style="fill:#ff6c37" />
    <path
       d="M 194.36,64.27 152.2,106.43 140.25,94.49 C 181.76,53 185.88,56.65 194.36,64.27 Z"
       fill="#ffffff"
       id="path20" />
    <path
       d="m 152.2,107.44 a 1,1 0 0 1 -0.71,-0.3 l -12,-12 a 1,1 0 0 1 0,-1.41 c 42.2,-42.2 46.64,-38.21 55.49,-30.26 a 1,1 0 0 1 0.33,0.72 1,1 0 0 1 -0.29,0.74 l -42.12,42.21 a 1,1 0 0 1 -0.7,0.3 z m -10.53,-13 10.53,10.56 40.71,-40.71 c -7.39,-6.53 -12.41,-8.56 -51.24,30.2 z"
       fill="#ff6c37"
       id="path22" />
    <path
       d="M 164.28,118.52 152.76,107 194.93,64.83 c 11.35,11.36 -5.48,29.88 -30.65,53.69 z"
       fill="#ffffff"
       id="path24" />
    <path
       d="m 164.28,119.52 h -0.05 a 1.07,1.07 0 0 1 -0.67,-0.31 l -11.51,-11.5 a 1.05,1.05 0 0 1 -0.29,-0.71 1,1 0 0 1 0.29,-0.71 l 42.17,-42.16 a 1,1 0 0 1 1.41,0 12.57,12.57 0 0 1 3.91,9.33 c -0.16,11.09 -12.79,25.18 -34.57,45.78 a 1,1 0 0 1 -0.69,0.28 z M 154.18,107 c 6.45,6.46 9.06,9.06 10.12,10.12 16.84,-16 33.08,-32.39 33.24,-43.68 a 10.34,10.34 0 0 0 -2.64,-7.17 z"
       fill="#ff6c37"
       id="path26" />
    <path
       d="m 140.54,94.78 8.51,8.5 a 0.41,0.41 0 0 1 -0.21,0.69 l -17.55,3.78 a 1.65,1.65 0 0 1 -1.52,-2.78 L 140,94.78 a 0.41,0.41 0 0 1 0.54,0 z"
       fill="#ffffff"
       id="path28" />
    <path
       d="m 130.93,108.79 a 2.65,2.65 0 0 1 -1.86,-4.53 l 10.18,-10.19 a 1.42,1.42 0 0 1 2,0 l 8.5,8.51 a 1.4,1.4 0 0 1 -0.7,2.37 l -17.55,3.78 a 2.76,2.76 0 0 1 -0.57,0.06 z m 9.32,-12.89 -9.77,9.77 a 0.63,0.63 0 0 0 -0.11,0.78 0.61,0.61 0 0 0 0.71,0.32 l 16.49,-3.55 z"
       fill="#ff6c37"
       id="path30" />
    <path
       d="m 216.72,40.86 a 16.18,16.18 0 1 0 -2.85,25.52 L 202.53,55.05 Z"
       fill="#ffffff"
       id="path32" />
    <path
       d="m 205.5,69.72 a 17.19,17.19 0 1 1 11.91,-29.58 1,1 0 0 1 0.31,0.71 1,1 0 0 1 -0.29,0.72 L 204,55.05 214.63,65.67 a 1,1 0 0 1 0.28,0.83 1,1 0 0 1 -0.48,0.74 17.21,17.21 0 0 1 -8.93,2.48 z m 0,-32.34 a 15.16,15.16 0 1 0 6.71,28.76 L 201.83,55.75 a 1,1 0 0 1 -0.3,-0.7 1,1 0 0 1 0.3,-0.71 L 215.27,40.9 a 15.19,15.19 0 0 0 -9.76,-3.52 z"
       fill="#ff6c37"
       id="path34" />
    <path
       d="m 217,41.08 -0.25,-0.22 -14.22,14.19 11.34,11.33 A 16,16 0 0 0 217,64 16.2,16.2 0 0 0 217,41.08 Z"
       fill="#ffffff"
       id="path36" />
    <path
       d="m 213.87,67.38 a 1,1 0 0 1 -0.71,-0.29 L 201.83,55.75 a 1,1 0 0 1 -0.3,-0.7 1,1 0 0 1 0.3,-0.71 L 216,40.15 a 1,1 0 0 1 1.4,0 l 0.26,0.23 a 17.15,17.15 0 0 1 -3.29,26.87 1,1 0 0 1 -0.5,0.13 z M 204,55.05 214,65.11 a 15.79,15.79 0 0 0 2.25,-1.84 15.19,15.19 0 0 0 0.46,-21 z"
       fill="#ff6c37"
       id="path38" />
    <path
       d="m 196.1,66 a 6.17,6.17 0 0 0 -8.71,0 L 149.68,103.72 156,110 195.86,75 a 6.16,6.16 0 0 0 0.24,-9 z"
       fill="#ffffff"
       id="path40" />
    <path
       d="m 156,111 a 1,1 0 0 1 -0.71,-0.29 L 149,104.43 a 1,1 0 0 1 0,-1.42 L 186.68,65.3 a 7.18,7.18 0 0 1 10.13,0 7.15,7.15 0 0 1 -0.34,10.43 l -39.86,35 A 1,1 0 0 1 156,111 Z m -4.86,-7.27 4.9,4.9 39.16,-34.39 a 5.16,5.16 0 1 0 -7.05,-7.52 z"
       fill="#ff6c37"
       id="path42" />
    <path
       d="m 120.76,146.58 a 0.91,0.91 0 0 0 -0.47,1 l 1.69,7.22 a 2,2 0 0 1 -3.44,1.91 l -10.93,-10.93 35.89,-35.88 12.35,0.19 8.43,8.42 c -2.09,1.75 -14.18,13.36 -43.52,28.07 z"
       fill="#ffffff"
       id="path44" />
    <path
       d="m 120,158.33 a 3,3 0 0 1 -2.14,-0.9 L 106.9,146.49 a 1,1 0 0 1 -0.29,-0.7 1,1 0 0 1 0.29,-0.71 l 35.89,-35.89 a 1,1 0 0 1 0.72,-0.29 l 12.36,0.19 a 1,1 0 0 1 0.69,0.29 l 8.42,8.43 a 1,1 0 0 1 0.3,0.75 1,1 0 0 1 -0.36,0.72 l -0.71,0.62 c -10.58,9.29 -25,18.55 -42.93,27.53 l 1.68,7.15 a 3,3 0 0 1 -1.49,3.36 3.07,3.07 0 0 1 -1.47,0.39 z M 109,145.79 119.25,156 a 1.0121265,1.0121265 0 0 0 1.76,-1 l -1.69,-7.22 a 1.9,1.9 0 0 1 1,-2.13 c 17.74,-8.9 32,-18.06 42.5,-27.23 l -7.38,-7.38 -11.53,-0.18 z"
       fill="#ff6c37"
       id="path46" />
    <path
       d="m 99,154.38 8.59,-8.59 12.77,12.77 -20.4,-1.4 A 1.63,1.63 0 0 1 99,154.38 Z"
       fill="#ffffff"
       id="path48" />
    <path
       d="m 120.38,159.56 h -0.06 l -20.41,-1.4 a 2.64,2.64 0 0 1 -1.6,-4.49 l 8.59,-8.59 a 1,1 0 0 1 1.42,0 l 12.77,12.77 a 1,1 0 0 1 0.21,1.13 1,1 0 0 1 -0.92,0.58 z m -12.77,-12.36 -7.88,7.88 a 0.62,0.62 0 0 0 -0.16,0.66 0.63,0.63 0 0 0 0.53,0.43 l 17.69,1.21 z"
       fill="#ff6c37"
       id="path50" />
    <path
       d="m 139.86,114.53 a 1,1 0 0 1 -0.71,-1.7 l 9.72,-9.72 a 1,1 0 0 1 1.42,0 l 6.26,6.27 a 1,1 0 0 1 0.26,1 1,1 0 0 1 -0.75,0.69 l -16,3.45 a 0.75,0.75 0 0 1 -0.2,0.01 z m 9.72,-9.3 -6.58,6.61 10.87,-2.35 z"
       fill="#ff6c37"
       id="path52" />
    <path
       d="m 155.85,110.09 -11,2.36 a 1.51,1.51 0 0 1 -1.39,-2.55 l 6.08,-6.08 z"
       fill="#ffffff"
       id="path54" />
    <g
       fill="#ff6c37"
       id="g60">
      <path
         d="m 144.56,113.48 a 2.51,2.51 0 0 1 -1.77,-4.29 l 6.08,-6.08 a 1,1 0 0 1 1.42,0 l 6.26,6.27 a 1,1 0 0 1 0.26,1 1,1 0 0 1 -0.75,0.69 l -11,2.37 a 2.47,2.47 0 0 1 -0.5,0.04 z m 5,-8.25 -5.38,5.37 a 0.49,0.49 0 0 0 -0.08,0.61 0.46,0.46 0 0 0 0.56,0.26 l 9.16,-2 z"
         id="path56" />
      <path
         d="m 217.07,50.69 a 1.16,1.16 0 1 0 -2.07,1 3.49,3.49 0 0 1 -0.43,3.76 1.16,1.16 0 0 0 0.15,1.63 1.17,1.17 0 0 0 1.63,-0.16 5.79,5.79 0 0 0 0.72,-6.23 z"
         id="path58" />
    </g>
  </g>
</svg>
