<?xml version="1.0" encoding="UTF-8" standalone="no"?>
<!-- Created with Inkscape (http://www.inkscape.org/) -->

<svg
   width="47.625mm"
   height="47.624523mm"
   viewBox="0 0 47.625 47.624522"
   version="1.1"
   id="svg2330"
   inkscape:version="1.1.2 (1:1.1+202202050950+0a00cf5339)"
   sodipodi:docname="swagger.svg"
   xmlns:inkscape="http://www.inkscape.org/namespaces/inkscape"
   xmlns:sodipodi="http://sodipodi.sourceforge.net/DTD/sodipodi-0.dtd"
   xmlns="http://www.w3.org/2000/svg"
   xmlns:svg="http://www.w3.org/2000/svg">
  <sodipodi:namedview
     id="namedview2332"
     pagecolor="#ffffff"
     bordercolor="#666666"
     borderopacity="1.0"
     inkscape:pageshadow="2"
     inkscape:pageopacity="0.0"
     inkscape:pagecheckerboard="0"
     inkscape:document-units="mm"
     showgrid="false"
     fit-margin-top="0"
     fit-margin-left="0"
     fit-margin-right="0"
     fit-margin-bottom="0"
     inkscape:zoom="0.72960859"
     inkscape:cx="436.53543"
     inkscape:cy="290.56676"
     inkscape:window-width="1920"
     inkscape:window-height="1016"
     inkscape:window-x="0"
     inkscape:window-y="27"
     inkscape:window-maximized="1"
     inkscape:current-layer="layer1" />
  <defs
     id="defs2327" />
  <g
     inkscape:label="Layer 1"
     inkscape:groupmode="layer"
     id="layer1"
     transform="translate(10.335349,-71.983474)">
    <g
       id="g2223"
       transform="matrix(0.47598821,0,0,0.47598821,77.915345,26.754817)">
      <g
         id="g2217">
        <path
           class="st5"
           d="m -135.37821,192.68954 c -26.27,0 -47.643,-21.371 -47.643,-47.642 0,-26.271 21.373,-47.642 47.643,-47.642 26.27,0 47.643,21.373 47.643,47.643 0,26.27 -21.373,47.641 -47.643,47.641 z"
           id="path18-5-2"
           style="fill:#85ea2d" />
        <path
           class="st2"
           d="m -135.37821,99.78954 c 24.996,0 45.258,20.262 45.258,45.258 0,24.995 -20.262,45.258 -45.258,45.258 -24.995,0 -45.258,-20.263 -45.258,-45.258 0,-24.995 20.263,-45.258 45.258,-45.258 m 0,-4.769 c -27.585,0 -50.027,22.442 -50.027,50.027 0,27.585 22.442,50.027 50.027,50.027 27.585,0 50.028,-22.442 50.028,-50.027 0,-27.585 -22.443,-50.027 -50.028,-50.027 z"
           id="path22-9-7"
           style="fill:#173647" />
      </g>
      <path
         class="st2"
         d="m -153.90421,128.87454 c -0.154,1.712 0.057,3.482 -0.057,5.213 -0.135,1.732 -0.347,3.444 -0.693,5.156 -0.481,2.443 -2.001,4.29 -4.097,5.829 4.079,2.655 4.54,6.771 4.809,10.946 0.135,2.251 0.077,4.521 0.308,6.752 0.173,1.731 0.846,2.174 2.636,2.231 0.731,0.019 1.48,0 2.328,0 v 5.348 c -5.29,0.904 -9.657,-0.596 -10.735,-5.078 -0.347,-1.635 -0.578,-3.309 -0.654,-5.002 -0.116,-1.789 0.076,-3.578 -0.058,-5.367 -0.385,-4.906 -1.02,-6.56 -5.713,-6.791 v -6.098 c 0.346,-0.077 0.673,-0.135 1.019,-0.173 2.578,-0.135 3.674,-0.924 4.232,-3.463 0.27,-1.423 0.424,-2.866 0.481,-4.328 0.193,-2.789 0.116,-5.636 0.596,-8.406 0.673,-3.982 3.136,-5.906 7.234,-6.137 1.154,-0.058 2.328,0 3.655,0 v 5.464 c -0.558,0.039 -1.039,0.115 -1.539,0.115 -3.328,-0.116 -3.502,1.019 -3.752,3.789 z m 6.406,12.658 h -0.077 c -1.924,-0.096 -3.578,1.404 -3.675,3.328 -0.096,1.943 1.404,3.598 3.328,3.693 h 0.231 c 1.905,0.116 3.539,-1.347 3.655,-3.251 v -0.192 c 0.039,-1.943 -1.519,-3.539 -3.462,-3.578 z m 12.062,0 c -1.866,-0.058 -3.425,1.404 -3.482,3.251 0,0.116 0,0.212 0.02,0.327 0,2.097 1.423,3.444 3.578,3.444 2.116,0 3.444,-1.385 3.444,-3.559 -0.02,-2.097 -1.425,-3.482 -3.56,-3.463 z m 12.351,0 c -1.962,-0.039 -3.598,1.52 -3.655,3.482 0,1.962 1.577,3.539 3.539,3.539 h 0.039 c 1.77,0.308 3.559,-1.404 3.675,-3.462 0.095,-1.905 -1.636,-3.559 -3.598,-3.559 z m 16.948,0.288 c -2.232,-0.096 -3.348,-0.846 -3.905,-2.963 -0.347,-1.346 -0.558,-2.751 -0.635,-4.136 -0.154,-2.578 -0.135,-5.175 -0.308,-7.753 -0.404,-6.117 -4.828,-8.252 -11.254,-7.195 v 5.31 c 1.019,0 1.808,0 2.597,0.019 1.366,0.019 2.405,0.539 2.539,2.059 0.135,1.385 0.135,2.789 0.27,4.194 0.27,2.79 0.423,5.617 0.904,8.368 0.424,2.27 1.982,3.963 3.924,5.348 -3.404,2.289 -4.405,5.559 -4.578,9.234 -0.096,2.52 -0.154,5.059 -0.288,7.599 -0.116,2.308 -0.923,3.058 -3.251,3.116 -0.654,0.019 -1.289,0.077 -2.02,0.116 v 5.444 c 1.366,0 2.616,0.077 3.866,0 3.886,-0.231 6.233,-2.116 7.003,-5.887 0.327,-2.078 0.519,-4.174 0.577,-6.271 0.134,-1.924 0.116,-3.867 0.308,-5.771 0.288,-2.982 1.654,-4.213 4.636,-4.405 0.289,-0.039 0.558,-0.096 0.828,-0.192 v -6.099 c -0.501,-0.058 -0.848,-0.115 -1.213,-0.135 z"
         id="path34-1-0"
         style="fill:#173647" />
    </g>
  </g>
</svg>
