<?xml version="1.0" encoding="UTF-8" standalone="no"?>
<svg
   width="350"
   height="350"
   viewBox="0 0 350 350"
   version="1.1"
   id="svg1473"
   sodipodi:docname="api_openapi.svg"
   inkscape:version="1.1.2 (1:1.1+202202050950+0a00cf5339)"
   xmlns:inkscape="http://www.inkscape.org/namespaces/inkscape"
   xmlns:sodipodi="http://sodipodi.sourceforge.net/DTD/sodipodi-0.dtd"
   xmlns="http://www.w3.org/2000/svg"
   xmlns:svg="http://www.w3.org/2000/svg"
   xmlns:rdf="http://www.w3.org/1999/02/22-rdf-syntax-ns#"
   xmlns:cc="http://creativecommons.org/ns#"
   xmlns:dc="http://purl.org/dc/elements/1.1/">
  <sodipodi:namedview
     id="namedview1475"
     pagecolor="#ffffff"
     bordercolor="#666666"
     borderopacity="1.0"
     inkscape:pageshadow="2"
     inkscape:pageopacity="0.0"
     inkscape:pagecheckerboard="0"
     showgrid="false"
     inkscape:zoom="2.34"
     inkscape:cx="54.91453"
     inkscape:cy="146.5812"
     inkscape:window-width="1920"
     inkscape:window-height="1016"
     inkscape:window-x="0"
     inkscape:window-y="27"
     inkscape:window-maximized="1"
     inkscape:current-layer="svg1473"
     fit-margin-top="0"
     fit-margin-left="0"
     fit-margin-right="0"
     fit-margin-bottom="0" />
  <defs
     id="defs1361">
    <style
       id="style1359">
      .a, .f {
        fill: #4a494d;
      }

      .a {
        opacity: 0.08;
      }

      .b {
        fill: #fff;
        stroke-width: 0.75px;
      }

      .b, .c, .d, .e {
        stroke: #4a494d;
        stroke-miterlimit: 10;
      }

      .c, .d, .e {
        fill: none;
      }

      .d, .e {
        stroke-linecap: round;
      }

      .d {
        opacity: 0.4;
      }

      .g {
        fill: #93d500;
      }

      .h {
        fill: #4d5a31;
      }

      .i {
        fill: #6ba43a;
      }

      .j {
        fill: #424143;
      }
    </style>
  </defs>
  <title
     id="title1363">SWH-OS_OL</title>
  <g
     id="g2636"
     transform="scale(2)">
    <circle
       class="a"
       cx="87.5"
       cy="87.5"
       r="87.5"
       id="circle1365" />
    <g
       id="g1471">
      <g
         id="g1407">
        <g
           id="g1371">
          <path
             class="b"
             d="m 168.211,137.207 a 15.039,15.039 0 0 1 -15.039,15.025 H 22.562 A 15.083,15.083 0 0 1 7.523,137.193 V 39.241 A 15.083,15.083 0 0 1 22.562,24.2 h 130.7 A 15.083,15.083 0 0 1 168.3,39.241 Z"
             id="path1367" />
          <line
             class="c"
             x1="7.6939998"
             y1="58.917999"
             x2="168.297"
             y2="58.917999"
             id="line1369" />
        </g>
        <line
           class="d"
           x1="51.540001"
           y1="78.850998"
           x2="79.359001"
           y2="78.850998"
           id="line1373" />
        <line
           class="d"
           x1="84.647003"
           y1="78.850998"
           x2="127.89"
           y2="78.850998"
           id="line1375" />
        <line
           class="d"
           x1="140.41901"
           y1="90.896004"
           x2="113.951"
           y2="90.896004"
           id="line1377" />
        <line
           class="d"
           x1="65.644997"
           y1="90.896004"
           x2="47.641998"
           y2="90.896004"
           id="line1379" />
        <line
           class="d"
           x1="60.810001"
           y1="102.914"
           x2="47.372002"
           y2="102.914"
           id="line1381" />
        <line
           class="d"
           x1="58.678001"
           y1="118.732"
           x2="74.139"
           y2="118.732"
           id="line1383" />
        <line
           class="d"
           x1="103.645"
           y1="118.732"
           x2="140.086"
           y2="118.732"
           id="line1385" />
        <line
           class="d"
           x1="104.714"
           y1="131.065"
           x2="47.452999"
           y2="131.065"
           id="line1387" />
        <line
           class="e"
           x1="34.828999"
           y1="78.850998"
           x2="45.962002"
           y2="78.850998"
           id="line1389" />
        <line
           class="e"
           x1="34.292999"
           y1="118.732"
           x2="51.595001"
           y2="118.732"
           id="line1391" />
        <g
           id="g1403">
          <path
             class="f"
             d="m 27.166,48.252 a 1.562,1.562 0 0 0 0.516,1.3 2.491,2.491 0 0 0 1.513,0.424 v 1.234 a 4.071,4.071 0 0 1 -2.594,-0.767 2.571,2.571 0 0 1 -0.916,-2.108 v -2.667 a 1.49,1.49 0 0 0 -0.556,-1.31 2.788,2.788 0 0 0 -1.613,-0.392 v -1.244 a 2.749,2.749 0 0 0 1.658,-0.423 1.5,1.5 0 0 0 0.511,-1.252 v -2.7 a 2.562,2.562 0 0 1 0.952,-2.126 3.99,3.99 0 0 1 2.558,-0.759 v 1.228 q -2.03,0.054 -2.029,1.755 v 2.6 a 2.087,2.087 0 0 1 -1.966,2.24 v 0.105 a 2.089,2.089 0 0 1 1.966,2.241 z"
             id="path1393" />
          <path
             class="f"
             d="m 40.6,48.358 -1.6,-4.1 h -5.173 l -1.587,4.1 h -1.517 l 5.1,-12.947 h 1.261 l 5.07,12.947 z m -2.072,-5.45 -1.5,-4 q -0.289,-0.758 -0.6,-1.86 a 16.6,16.6 0 0 1 -0.556,1.86 l -1.516,4 z"
             id="path1395" />
          <path
             class="f"
             d="m 53,39.221 a 3.612,3.612 0 0 1 -1.336,3.012 6.056,6.056 0 0 1 -3.823,1.054 h -1.513 v 5.071 h -1.5 V 35.464 h 3.343 Q 53,35.464 53,39.221 Z M 46.328,42 h 1.349 A 5.015,5.015 0 0 0 50.561,41.357 2.376,2.376 0 0 0 51.452,39.293 2.222,2.222 0 0 0 50.613,37.388 4.368,4.368 0 0 0 48,36.761 h -1.672 z"
             id="path1397" />
          <path
             class="f"
             d="M 56.606,48.358 V 35.464 h 1.5 v 12.894 z"
             id="path1399" />
          <path
             class="f"
             d="m 65.376,43.287 a 2.089,2.089 0 0 1 -1.968,-2.24 v -2.6 q 0,-1.7 -2,-1.755 v -1.228 a 3.9,3.9 0 0 1 2.553,0.768 2.591,2.591 0 0 1 0.93,2.117 v 2.7 a 1.485,1.485 0 0 0 0.521,1.256 2.809,2.809 0 0 0 1.666,0.419 v 1.244 a 2.825,2.825 0 0 0 -1.631,0.392 1.493,1.493 0 0 0 -0.556,1.31 v 2.67 a 2.589,2.589 0 0 1 -0.9,2.1 4,4 0 0 1 -2.579,0.771 v -1.23 a 2.44,2.44 0 0 0 1.491,-0.424 1.568,1.568 0 0 0 0.51,-1.3 v -2.624 a 2.2,2.2 0 0 1 0.486,-1.535 2.543,2.543 0 0 1 1.482,-0.706 z"
             id="path1401" />
        </g>
        <line
           class="d"
           x1="119.74"
           y1="102.914"
           x2="110.798"
           y2="102.914"
           id="line1405" />
      </g>
      <g
         id="g1469">
        <g
           id="g1465">
          <path
             class="g"
             d="m 81.607,103.219 h -8.67 c 0,0.042 0,0.085 0,0.127 0,0.081 0.009,0.163 0.014,0.244 0,0.035 0,0.07 0.007,0.1 0.007,0.094 0.015,0.188 0.023,0.282 l 0.006,0.063 c 0.01,0.1 0.022,0.209 0.034,0.312 v 0.031 c 0.014,0.112 0.028,0.224 0.045,0.335 v 0 a 14.458,14.458 0 0 0 0.447,2.049 v 0.009 c 0.031,0.105 0.064,0.211 0.1,0.316 l 0.006,0.018 0.006,0.019 c 0.03,0.095 0.063,0.189 0.095,0.284 0.009,0.023 0.017,0.048 0.025,0.071 0.029,0.082 0.059,0.164 0.089,0.246 l 0.043,0.111 c 0.026,0.067 0.052,0.135 0.079,0.2 0.02,0.051 0.041,0.1 0.062,0.153 l 0.066,0.158 c 0.028,0.065 0.057,0.129 0.085,0.193 l 0.051,0.115 0.108,0.231 0.036,0.074 c 0.043,0.088 0.086,0.175 0.13,0.262 l 0.021,0.04 c 0.049,0.1 0.1,0.193 0.152,0.288 l 0.006,0.013 0.034,0.059 7.405,-4.461 0.027,-0.017 a 5.88,5.88 0 0 1 -0.532,-1.925 z"
             id="path1409" />
          <polygon
             class="g"
             points="73.349,107.202 73.629,107.114 73.346,107.195 "
             id="polygon1411" />
          <path
             class="h"
             d="m 83.738,107.2 -0.021,0.021 -6.107,6.107 c 0.031,0.029 0.062,0.059 0.094,0.087 0.057,0.052 0.115,0.1 0.173,0.154 l 0.089,0.078 c 0.069,0.06 0.139,0.119 0.209,0.177 l 0.056,0.047 c 0.079,0.065 0.158,0.128 0.238,0.192 l 0.031,0.024 c 0.087,0.068 0.174,0.134 0.262,0.2 l 0.01,0.007 q 0.552,0.413 1.142,0.773 l 0.041,0.025 0.225,0.133 0.139,0.078 0.131,0.074 c 0.079,0.043 0.158,0.086 0.238,0.128 l 0.033,0.018 c 0.223,0.116 0.448,0.224 0.676,0.328 v 0 l 0.217,-0.526 3.071,-7.459 0.012,-0.028 A 5.86,5.86 0 0 1 83.738,107.2 Z"
             id="path1413" />
          <path
             class="i"
             d="m 83.1,106.591 c -0.066,-0.074 -0.129,-0.149 -0.191,-0.225 -0.062,-0.076 -0.107,-0.135 -0.158,-0.2 -0.051,-0.065 -0.116,-0.159 -0.17,-0.241 -0.054,-0.082 -0.108,-0.163 -0.158,-0.247 l -7.414,4.467 c 0.114,0.189 0.232,0.373 0.354,0.555 l 0.012,0.019 v 0 0.007 l 0.012,0.018 v 0 l 0.03,0.043 v 0 0 c 0.129,0.191 0.261,0.378 0.4,0.561 l 0.009,0.011 0.008,0.012 c 0.059,0.078 0.119,0.157 0.18,0.234 l 0.025,0.031 c 0.062,0.08 0.126,0.159 0.191,0.238 l 0.047,0.056 c 0.058,0.07 0.117,0.14 0.177,0.209 l 0.078,0.089 c 0.051,0.058 0.1,0.116 0.154,0.173 l 0.087,0.094 0.04,0.043 c 0.038,0.041 0.075,0.082 0.114,0.123 l 0.047,0.048 c 0.068,0.07 0.136,0.141 0.205,0.21 l 6.116,-6.116 c -0.063,-0.068 -0.128,-0.14 -0.195,-0.212 z"
             id="path1415" />
          <path
             class="h"
             d="m 91.209,107.2 c -0.068,0.054 -0.136,0.107 -0.2,0.158 l 0.016,0.025 4.459,7.4 c 0.206,-0.135 0.41,-0.274 0.61,-0.42 a 14.634,14.634 0 0 0 1.251,-1.035 l -6.107,-6.107 z"
             id="path1417" />
          <polygon
             class="g"
             points="94.925,115.129 94.915,115.134 "
             id="polygon1419" />
          <polygon
             class="g"
             points=""
             id="polygon1421" />
          <path
             class="g"
             d="m 94.925,115.129 v 0 c 0.019,-0.011 0.039,-0.021 0.058,-0.033 v 0 z"
             id="path1423" />
          <polygon
             class="g"
             points="94.915,115.134 94.913,115.136 "
             id="polygon1425" />
          <polygon
             class="g"
             points="94.9,115.118 94.911,115.137 "
             id="polygon1427" />
          <polygon
             class="g"
             points="94.915,115.134 94.915,115.135 94.925,115.129 "
             id="polygon1429" />
          <polygon
             class="g"
             points="94.907,115.139 94.91,115.138 "
             id="polygon1431" />
          <polygon
             class="g"
             points="94.91,115.138 94.911,115.137 "
             id="polygon1433" />
          <polygon
             class="g"
             points="94.911,115.137 94.915,115.135 94.915,115.134 94.913,115.136 "
             id="polygon1435" />
          <path
             class="g"
             d="m 94.925,115.129 c 0.019,-0.011 0.039,-0.021 0.058,-0.033 -0.019,0.012 -0.039,0.022 -0.058,0.033 z"
             id="path1437" />
          <polygon
             class="g"
             points="94.982,115.094 94.983,115.096 "
             id="polygon1439" />
          <rect
             class="g"
             x="94.906998"
             y="115.139"
             transform="rotate(-33.69,94.908102,115.13938)"
             id="rect1441"
             width="0"
             height="0" />
          <polygon
             class="g"
             points="94.905,115.14 94.905,115.141 "
             id="polygon1443" />
          <polygon
             class="g"
             points="94.907,115.139 94.905,115.14 "
             id="polygon1445" />
          <path
             class="g"
             d="m 94.831,114.843 -0.152,-0.251 -4.162,-6.91 c -0.084,0.051 -0.17,0.1 -0.256,0.143 -0.086,0.043 -0.175,0.09 -0.263,0.132 a 5.883,5.883 0 0 1 -4.216,0.327 c -0.094,-0.027 -0.185,-0.064 -0.277,-0.1 -0.092,-0.036 -0.186,-0.061 -0.277,-0.1 l -3.07,7.454 -0.12,0.292 -0.1,0.25 v 0 l 0.024,0.009 0.025,0.01 v 0 h 0.006 c 0.073,0.03 0.146,0.055 0.218,0.084 l 0.274,0.105 0.14,0.053 v 0 a 14.627,14.627 0 0 0 2.969,0.71 l 0.118,0.016 0.125,0.014 c 0.078,0.009 0.156,0.018 0.234,0.025 l 0.058,0.005 c 0.1,0.009 0.192,0.018 0.287,0.024 l 0.1,0.006 q 0.126,0.009 0.252,0.015 c 0.051,0 0.1,0 0.154,0.006 l 0.2,0.007 c 0.1,0 0.193,0 0.289,0 h 0.069 a 14.6,14.6 0 0 0 2.415,-0.2 v 0 l 0.04,-0.006 0.253,-0.047 0.145,-0.027 0.148,-0.031 c 0.082,-0.018 0.164,-0.035 0.247,-0.055 l 0.044,-0.01 a 14.612,14.612 0 0 0 3.49,-1.3 v 0 c 0.073,-0.038 0.143,-0.081 0.215,-0.121 0.072,-0.04 0.171,-0.095 0.256,-0.144 0.059,-0.034 0.118,-0.065 0.177,-0.1 h 0.006 l -0.011,-0.019 0.011,0.019 v 0 0 h 0.01 l 0.057,-0.035 v 0 z"
             id="path1447" />
          <path
             class="g"
             d="m 83.741,98.069 c 0.067,-0.055 0.135,-0.108 0.2,-0.159 l -0.016,-0.025 -4.459,-7.4 c -0.207,0.135 -0.411,0.274 -0.611,0.421 a 14.455,14.455 0 0 0 -1.251,1.033 l 6.108,6.108 z"
             id="path1449" />
          <path
             class="h"
             d="m 77.186,92.343 c -0.069,0.07 -0.135,0.142 -0.2,0.212 -0.065,0.07 -0.137,0.141 -0.2,0.212 A 14.6,14.6 0 0 0 75.545,94.3 l -0.054,0.076 -0.124,0.183 c -0.042,0.064 -0.085,0.129 -0.126,0.193 -0.015,0.023 -0.031,0.047 -0.045,0.071 a 14.507,14.507 0 0 0 -2.259,7.224 c 0,0.1 -0.006,0.195 -0.008,0.293 -0.002,0.098 0,0.2 0,0.293 h 8.65 c 0,-0.1 0.009,-0.2 0.014,-0.293 0.005,-0.093 0.006,-0.2 0.016,-0.294 a 5.872,5.872 0 0 1 1.3,-3.15 c 0.062,-0.075 0.132,-0.145 0.2,-0.218 0.068,-0.073 0.127,-0.147 0.2,-0.217 z"
             id="path1451" />
          <path
             class="h"
             d="M 95.033,90.2 95,90.175 C 94.924,90.128 94.847,90.084 94.77,90.038 L 94.636,89.962 94.501,89.887 94.266,89.76 94.229,89.741 a 14.412,14.412 0 0 0 -1.56,-0.7 L 92.627,89.025 C 92.511,88.981 92.395,88.938 92.278,88.898 A 14.56,14.56 0 0 0 89.364,88.206 L 89.242,88.189 89.12,88.176 88.885,88.15 H 88.82 C 88.727,88.141 88.633,88.133 88.54,88.126 L 88.431,88.119 88.191,88.105 88.064,88.1 v 8.671 a 6.026,6.026 0 0 1 1.314,0.286 l 6.381,-6.381 c -0.24,-0.17 -0.479,-0.33 -0.726,-0.476 z"
             id="path1453" />
          <polygon
             class="i"
             points="79.968,90.17 80.119,90.421 "
             id="polygon1455" />
          <polygon
             class="i"
             points="79.968,90.17 79.967,90.168 "
             id="polygon1457" />
          <path
             class="i"
             d="m 87.182,88.088 c -0.1,0 -0.2,0 -0.294,0.006 a 14.593,14.593 0 0 0 -1.828,0.188 l -0.04,0.007 -0.254,0.046 -0.143,0.028 -0.149,0.031 c -0.083,0.017 -0.165,0.035 -0.247,0.054 v 0 l -0.045,0.01 a 14.631,14.631 0 0 0 -3.49,1.3 v 0 c -0.072,0.038 -0.142,0.081 -0.214,0.12 -0.072,0.039 -0.171,0.095 -0.256,0.144 -0.063,0.037 -0.127,0.07 -0.19,0.107 v 0 0 l -0.013,0.007 c -0.017,0.01 -0.034,0.018 -0.05,0.028 v 0 l 0.151,0.251 v 0 l 4.314,7.161 c 0.084,-0.051 0.17,-0.1 0.256,-0.143 0.086,-0.043 0.174,-0.09 0.263,-0.132 a 5.906,5.906 0 0 1 1.936,-0.543 c 0.1,-0.01 0.195,-0.018 0.293,-0.023 0.098,-0.005 0.2,-0.01 0.294,-0.01 v -8.65 c -0.099,0.006 -0.197,0.011 -0.294,0.013 z"
             id="path1459" />
          <path
             class="h"
             d="m 102.008,101.917 c 0,-0.078 -0.009,-0.155 -0.014,-0.233 0,-0.039 0,-0.077 -0.008,-0.117 -0.006,-0.091 -0.014,-0.182 -0.022,-0.274 0,-0.023 0,-0.047 -0.007,-0.07 -0.01,-0.1 -0.021,-0.2 -0.032,-0.306 v -0.025 -0.012 c -0.013,-0.11 -0.028,-0.22 -0.043,-0.33 v -0.01 a 14.434,14.434 0 0 0 -0.447,-2.045 v -0.013 q -0.047,-0.156 -0.1,-0.312 l -0.014,-0.041 c -0.03,-0.094 -0.061,-0.187 -0.094,-0.28 l -0.026,-0.075 c -0.029,-0.081 -0.058,-0.161 -0.088,-0.242 -0.014,-0.038 -0.029,-0.076 -0.044,-0.114 -0.025,-0.067 -0.051,-0.133 -0.078,-0.2 -0.027,-0.067 -0.042,-0.1 -0.064,-0.157 -0.022,-0.057 -0.042,-0.1 -0.064,-0.154 -0.029,-0.066 -0.057,-0.132 -0.086,-0.2 l -0.05,-0.111 c -0.036,-0.078 -0.073,-0.156 -0.11,-0.234 -0.011,-0.024 -0.022,-0.048 -0.034,-0.071 -0.043,-0.089 -0.087,-0.178 -0.131,-0.266 l -0.02,-0.037 c -0.05,-0.1 -0.1,-0.194 -0.152,-0.29 l -0.006,-0.01 a 14.485,14.485 0 0 0 -0.828,-1.343 l -6.383,6.383 a 6.03,6.03 0 0 1 0.286,1.313 h 8.671 c -0.009,-0.041 -0.01,-0.082 -0.012,-0.124 z"
             id="path1461" />
          <path
             class="i"
             d="m 93.376,102.632 c 0,0.1 -0.009,0.195 -0.014,0.293 -0.005,0.098 -0.007,0.2 -0.016,0.294 a 5.874,5.874 0 0 1 -1.305,3.15 c -0.061,0.075 -0.131,0.146 -0.2,0.218 -0.069,0.072 -0.126,0.148 -0.2,0.218 l 6.116,6.116 c 0.069,-0.069 0.135,-0.141 0.2,-0.212 0.065,-0.071 0.136,-0.14 0.2,-0.212 a 14.687,14.687 0 0 0 1.239,-1.536 l 0.043,-0.063 c 0.045,-0.065 0.09,-0.131 0.134,-0.2 0.044,-0.069 0.078,-0.118 0.116,-0.178 0.019,-0.028 0.038,-0.058 0.056,-0.086 a 14.519,14.519 0 0 0 2.254,-7.218 c 0,-0.1 0.006,-0.2 0.008,-0.294 0.002,-0.094 0.005,-0.195 0.005,-0.293 z"
             id="path1463" />
        </g>
        <path
           class="j"
           d="M 104.594,85.512 A 4.051,4.051 0 0 0 98.1,90.177 L 89.274,99 a 4.052,4.052 0 1 0 1.829,1.829 l 8.827,-8.827 a 4.051,4.051 0 0 0 4.664,-6.494 z"
           id="path1467" />
      </g>
    </g>
  </g>
  <metadata
     id="metadata2520">
    <rdf:RDF>
      <cc:Work
         rdf:about="">
        <dc:title>SWH-OS_OL</dc:title>
      </cc:Work>
    </rdf:RDF>
  </metadata>
</svg>
